<?xml version="1.0" encoding="UTF-8"?>
<svg width="24px" height="24px" viewBox="0 0 24 24" version="1.1" xmlns="http://www.w3.org/2000/svg" xmlns:xlink="http://www.w3.org/1999/xlink">
    <!-- Generator: Sketch 52.2 (67145) - http://www.bohemiancoding.com/sketch -->
    <title>General Settings</title>
    <desc>Created with Sketch.</desc>
    <g id="General-Settings" stroke="none" stroke-width="1" fill="none" fill-rule="evenodd">
        <g id="settings-(6)" transform="translate(2.000000, 2.000000)" fill="#333333">
            <path d="M9.79183673,0.782125362 L8.79183673,1.17698133 C8.25714286,1.38809244 8.00408163,1.97842166 8.2244898,2.48665211 L8.48163265,3.08089079 C7.97959184,3.43665211 7.54285714,3.85887433 7.16734694,4.33973853 L6.54693878,4.09344223 C6.28979592,3.99179614 6.00408163,3.99179614 5.74693878,4.09344223 C5.48979592,4.19508833 5.28571429,4.39056158 5.17959184,4.63685787 L4.76326531,5.5946768 C4.54285714,6.10681672 4.79591837,6.69323647 5.33061224,6.90434758 L6.24897959,7.26792783 C6.45714286,7.3500266 6.68979592,7.25619944 6.7755102,7.05681672 C6.86122449,6.857434 6.76326531,6.6345945 6.55510204,6.55249573 L5.63673469,6.18891549 C5.51428571,6.14200191 5.45714286,6.00517063 5.50612245,5.88788668 L5.92244898,4.93006775 C5.94693878,4.87533524 5.99183673,4.82842166 6.05306122,4.80496487 C6.11020408,4.78150808 6.1755102,4.78150808 6.23673469,4.80496487 L7.15510204,5.16854512 C7.33469388,5.23891549 7.53877551,5.18027351 7.64489796,5.02780437 C8.05714286,4.43356569 8.57959184,3.93315417 9.2,3.5382982 C9.35918367,3.43665211 9.4244898,3.2372694 9.35102041,3.0691624 L8.97142857,2.18953277 C8.92244898,2.07224882 8.97959184,1.93932701 9.10204082,1.88850396 L10.1020408,1.493648 C10.1591837,1.47019121 10.2244898,1.47019121 10.2857143,1.493648 C10.3428571,1.51710479 10.3918367,1.5601089 10.4163265,1.61875088 L10.7959184,2.49838051 C10.8693878,2.67039697 11.0571429,2.76813359 11.2489796,2.72903894 C11.9755102,2.5882982 12.7183673,2.59220767 13.444898,2.72903894 C13.6326531,2.76422413 13.8244898,2.6664875 13.8979592,2.49838051 L14.277551,1.61875088 C14.3265306,1.50146693 14.4693878,1.44673442 14.5918367,1.493648 L15.5918367,1.89241343 C15.6489796,1.91587022 15.6979592,1.95887433 15.722449,2.01751631 C15.7469388,2.07224882 15.7469388,2.13480026 15.722449,2.19344223 L15.3428571,3.07307186 C15.2693878,3.24508833 15.3306122,3.44056158 15.4897959,3.54220767 C16.1102041,3.93706363 16.6326531,4.43747516 17.044898,5.03171384 C17.1510204,5.18418298 17.3591837,5.24673442 17.5346939,5.17636405 L18.4530612,4.8127838 C18.5142857,4.78932701 18.5755102,4.78932701 18.6367347,4.8127838 C18.6938776,4.83624059 18.7428571,4.8792447 18.7673469,4.93788668 L19.1795918,5.89570561 C19.2040816,5.95043812 19.2040816,6.01298956 19.1795918,6.07163154 C19.155102,6.12636405 19.1102041,6.17327763 19.0489796,6.19673442 L18.1306122,6.56031466 C17.9510204,6.63068503 17.8530612,6.81052042 17.8897959,6.99426528 C18.0367347,7.69015005 18.0326531,8.40167269 17.8897959,9.09755746 C17.8530612,9.27739285 17.955102,9.46113771 18.1306122,9.53150808 L19.0489796,9.89508833 C19.1714286,9.94200191 19.2285714,10.0788332 19.1795918,10.1961171 L18.7632653,11.1539361 C18.7142857,11.27122 18.5714286,11.3259525 18.4489796,11.2790389 L17.5306122,10.9154587 C17.3510204,10.8450883 17.1469388,10.9037303 17.0408163,11.0561994 C16.6285714,11.6504381 16.1061224,12.1508496 15.4857143,12.5457056 C15.3265306,12.6473517 15.2612245,12.8467344 15.3346939,13.0148414 L15.7142857,13.894471 C15.7387755,13.9492036 15.7387755,14.011755 15.7142857,14.070397 C15.6897959,14.1251295 15.644898,14.1720431 15.5836735,14.1954998 L14.5836735,14.5903558 C14.5265306,14.6138126 14.4612245,14.6138126 14.4,14.5903558 C14.3428571,14.566899 14.2938776,14.5238949 14.2693878,14.4652529 L13.8897959,13.5856233 C13.8040816,13.3862406 13.5673469,13.2924134 13.3632653,13.3745122 C13.155102,13.456611 13.0571429,13.6833599 13.1428571,13.8788332 L13.522449,14.7584628 C13.6285714,15.0047591 13.8326531,15.2002324 14.0897959,15.3018784 C14.2204082,15.3527015 14.355102,15.3800677 14.4897959,15.3800677 C14.6244898,15.3800677 14.7632653,15.3527015 14.8897959,15.3018784 L15.8897959,14.9070225 C16.1469388,14.8053764 16.3510204,14.6099031 16.4571429,14.3636068 C16.5632653,14.1173105 16.5632653,13.843648 16.4571429,13.5973517 L16.2,13.003113 C16.7020408,12.6473517 17.1387755,12.2251295 17.5142857,11.7442653 L18.1346939,11.9905616 C18.6693878,12.2016727 19.2816327,11.9592859 19.5020408,11.4471459 L19.9183673,10.489327 C20.1387755,9.97718709 19.8857143,9.39076734 19.3510204,9.17965623 L18.7306122,8.93335993 C18.8204082,8.34303071 18.8204082,7.74488256 18.7306122,7.15455335 L19.3510204,6.90825705 C19.6081633,6.80661096 19.8122449,6.61113771 19.9183673,6.36484141 C20.0244898,6.11854512 20.0244898,5.84488256 19.9183673,5.59858627 L19.5061224,4.64076734 C19.4,4.39447104 19.1959184,4.19899779 18.9387755,4.0973517 C18.6816327,3.99570561 18.3959184,3.99570561 18.1387755,4.0973517 L17.5183673,4.343648 C17.1469388,3.8627838 16.7061224,3.44056158 16.2081633,3.08480026 L16.4653061,2.49056158 C16.5714286,2.24426528 16.5714286,1.97060273 16.4653061,1.72430643 C16.3591837,1.47801014 16.155102,1.28253688 15.8979592,1.18089079 L14.8979592,0.782125362 C14.3632653,0.571014251 13.7510204,0.813401082 13.5306122,1.325541 L13.2734694,1.91977968 C12.6571429,1.83377145 12.0326531,1.83377145 11.4163265,1.91977968 L11.1591837,1.325541 C11.0530612,1.0792447 10.8489796,0.883771453 10.5918367,0.782125362 C10.3346939,0.680479272 10.0489796,0.680479272 9.79183673,0.782125362 Z" id="Path"></path>
            <path d="M15.6285714,8.01854512 C15.6163265,6.29056158 14.1428571,4.89488256 12.3428571,4.89488256 C12.3346939,4.89488256 12.3265306,4.89488256 12.3183673,4.89488256 C11.4408163,4.90270149 10.6163265,5.23500602 10,5.83315417 C9.38367347,6.43130232 9.04897959,7.22492372 9.05306122,8.0654587 C9.05306122,8.27656981 9.23673469,8.44858627 9.45714286,8.44858627 L9.46122449,8.44858627 C9.68571429,8.44858627 9.86530612,8.27266034 9.86122449,8.05763977 C9.85714286,7.42430643 10.1102041,6.82615828 10.5755102,6.37266034 C11.0408163,5.9191624 11.6612245,5.66895664 12.322449,5.66504717 C12.3265306,5.66504717 12.3346939,5.66504717 12.3387755,5.66504717 C13.6979592,5.66504717 14.8081633,6.72060273 14.8163265,8.02245458 C14.8244898,9.33212536 13.722449,10.4033188 12.355102,10.4150472 C12.1306122,10.4150472 11.9510204,10.5909731 11.955102,10.8059937 C11.955102,11.0171048 12.1387755,11.1891212 12.3591837,11.1891212 C14.1795918,11.1773929 15.6408163,9.75434758 15.6285714,8.01854512 Z" id="Path"></path>
            <path d="M5.52244898,19.6882982 L6.31020408,19.6882982 C6.79183673,19.6882982 7.18367347,19.3129896 7.18367347,18.8516727 L7.18367347,18.4646357 C7.5755102,18.3629896 7.95102041,18.2144299 8.30204082,18.0189566 L8.5877551,18.2926192 C8.75102041,18.4489978 8.97142857,18.5389155 9.20408163,18.5389155 C9.43673469,18.5389155 9.65714286,18.4529073 9.82040816,18.2926192 L10.3755102,17.7609319 C10.5387755,17.6045533 10.6326531,17.3934422 10.6326531,17.1706027 C10.6326531,16.9477632 10.5428571,16.7366521 10.3755102,16.5802735 L10.0897959,16.306611 C10.2938776,15.970397 10.4489796,15.6107262 10.555102,15.2354175 L10.9591837,15.2354175 C11.4408163,15.2354175 11.8326531,14.8601089 11.8326531,14.398792 L11.8326531,13.6442653 C11.8326531,13.1829484 11.4408163,12.8076398 10.9591837,12.8076398 L10.555102,12.8076398 C10.4489796,12.4323311 10.2938776,12.0726603 10.0897959,11.7364463 L10.3755102,11.4627838 C10.5387755,11.3064052 10.6326531,11.0952941 10.6326531,10.8724546 C10.6326531,10.6496151 10.5428571,10.438504 10.3755102,10.2821254 L9.82040816,9.75043812 C9.65714286,9.59405952 9.43673469,9.50414182 9.20408163,9.50414182 C8.97142857,9.50414182 8.75102041,9.59015005 8.5877551,9.75043812 L8.30204082,10.0241007 C7.95102041,9.82862742 7.5755102,9.68006775 7.18367347,9.57842166 L7.18367347,9.19138462 C7.18367347,8.73006775 6.79183673,8.35475911 6.31020408,8.35475911 L5.52244898,8.35475911 C5.04081633,8.35475911 4.64897959,8.73006775 4.64897959,9.19138462 L4.64897959,9.57842166 C4.25714286,9.68006775 3.88163265,9.82862742 3.53061224,10.0241007 L3.24489796,9.75043812 C3.08163265,9.59405952 2.86122449,9.50414182 2.62857143,9.50414182 C2.39591837,9.50414182 2.1755102,9.59015005 2.0122449,9.75043812 L1.45714286,10.2821254 C1.11836735,10.606611 1.11836735,11.1382982 1.45714286,11.4627838 L1.74285714,11.7364463 C1.53877551,12.0726603 1.38367347,12.4323311 1.27755102,12.8076398 L0.873469388,12.8076398 C0.391836735,12.8076398 -1.42108547e-13,13.1829484 -1.42108547e-13,13.6442653 L-1.42108547e-13,14.398792 C-1.42108547e-13,14.8601089 0.391836735,15.2354175 0.873469388,15.2354175 L1.27755102,15.2354175 C1.38367347,15.6107262 1.53877551,15.970397 1.74285714,16.306611 L1.45714286,16.5802735 C1.11836735,16.9047591 1.11836735,17.4364463 1.45714286,17.7609319 L2.0122449,18.2926192 C2.1755102,18.4489978 2.39591837,18.5389155 2.62857143,18.5389155 C2.86122449,18.5389155 3.08163265,18.4529073 3.24489796,18.2926192 L3.53061224,18.0189566 C3.88163265,18.2144299 4.25714286,18.3629896 4.64897959,18.4646357 L4.64897959,18.8516727 C4.65306122,19.3129896 5.04489796,19.6882982 5.52244898,19.6882982 Z M3.69795918,17.2096974 C3.62857143,17.1666933 3.55102041,17.1432365 3.47346939,17.1432365 C3.36734694,17.1432365 3.26530612,17.1823311 3.1877551,17.256611 L2.67755102,17.7452941 C2.66122449,17.7609319 2.64489796,17.7648414 2.63265306,17.7648414 C2.62040816,17.7648414 2.60408163,17.7609319 2.5877551,17.7452941 L2.03265306,17.2136068 C2.00816327,17.1901501 2.00816327,17.1510554 2.03265306,17.1275986 L2.54285714,16.6389155 C2.67755102,16.5099031 2.70204082,16.3027015 2.59183673,16.1502324 C2.29795918,15.7319196 2.09795918,15.2666933 1.99591837,14.7741007 C1.95918367,14.5942653 1.79183673,14.4613435 1.6,14.4613435 L0.87755102,14.4613435 C0.840816327,14.4613435 0.812244898,14.4339772 0.812244898,14.398792 L0.812244898,13.6442653 C0.812244898,13.6090801 0.840816327,13.5817138 0.87755102,13.5817138 L1.6,13.5817138 C1.79183673,13.5817138 1.95918367,13.4527015 1.99591837,13.2689566 C2.09795918,12.776364 2.29795918,12.3111377 2.59183673,11.892825 C2.69795918,11.7403558 2.67755102,11.5331542 2.54285714,11.4041418 L2.03265306,10.9154587 C2.00816327,10.8920019 2.00816327,10.8529073 2.03265306,10.8294505 L2.5877551,10.2977632 C2.60408163,10.2821254 2.62040816,10.2782159 2.63265306,10.2782159 C2.64489796,10.2782159 2.66122449,10.2821254 2.67755102,10.2977632 L3.1877551,10.7942653 C3.32244898,10.9232776 3.53877551,10.9467344 3.69795918,10.8411789 C4.13469388,10.5596974 4.62040816,10.3681336 5.13469388,10.270397 C5.32244898,10.2352118 5.46122449,10.0749237 5.46122449,9.89117886 L5.46122449,9.19920355 C5.46122449,9.16401837 5.48979592,9.13665211 5.52653061,9.13665211 L6.31428571,9.13665211 C6.35102041,9.13665211 6.37959184,9.16401837 6.37959184,9.19920355 L6.37959184,9.89117886 C6.37959184,10.0749237 6.51428571,10.2352118 6.70612245,10.270397 C7.22040816,10.3681336 7.70612245,10.5596974 8.14285714,10.8411789 C8.30204082,10.942825 8.51836735,10.9232776 8.65306122,10.7942653 L9.16326531,10.3055822 C9.17959184,10.2899443 9.19591837,10.2860348 9.20816327,10.2860348 C9.22040816,10.2860348 9.23673469,10.2899443 9.25306122,10.3055822 L9.80816327,10.8372694 C9.8244898,10.8529073 9.82857143,10.8685451 9.82857143,10.8802735 C9.82857143,10.8920019 9.8244898,10.9076398 9.80816327,10.9232776 L9.29795918,11.4119608 C9.16326531,11.5409731 9.13877551,11.7481747 9.24897959,11.9006439 C9.54285714,12.3189566 9.74285714,12.784183 9.84489796,13.2767756 C9.88163265,13.456611 10.0489796,13.5895328 10.2408163,13.5895328 L10.9632653,13.5895328 C11,13.5895328 11.0285714,13.616899 11.0285714,13.6520842 L11.0285714,14.406611 C11.0285714,14.4417961 11,14.4691624 10.9632653,14.4691624 L10.2408163,14.4691624 C10.0489796,14.4691624 9.88163265,14.5981747 9.84489796,14.7819196 C9.74285714,15.2745122 9.54285714,15.7397385 9.24897959,16.1580513 C9.14285714,16.3105204 9.16326531,16.5177221 9.29795918,16.6467344 L9.80816327,17.1354175 C9.8244898,17.1510554 9.82857143,17.1666933 9.82857143,17.1784217 C9.82857143,17.1901501 9.8244898,17.2057879 9.80816327,17.2214258 L9.25306122,17.753113 C9.23673469,17.7687509 9.22040816,17.7726603 9.20816327,17.7726603 C9.19591837,17.7726603 9.17959184,17.7687509 9.16326531,17.753113 L8.65306122,17.2644299 C8.51836735,17.1354175 8.30204082,17.1119608 8.14285714,17.2175163 C7.70612245,17.4989978 7.22040816,17.6905616 6.70612245,17.7882982 C6.51836735,17.8234834 6.37959184,17.9837715 6.37959184,18.1675163 L6.37959184,18.8594916 C6.37959184,18.8946768 6.35102041,18.9220431 6.31428571,18.9220431 L5.52653061,18.9220431 C5.48979592,18.9220431 5.46122449,18.8946768 5.46122449,18.8594916 L5.46122449,18.1675163 C5.46122449,17.9837715 5.32653061,17.8234834 5.13469388,17.7882982 C4.62040816,17.6827426 4.13469388,17.4911789 3.69795918,17.2096974 Z" id="Shape" fill-rule="nonzero"></path>
            <path d="M8.31428571,14.0273929 C8.31428571,12.7607262 7.23673469,11.7286274 5.91428571,11.7286274 C4.59183673,11.7286274 3.51836735,12.7607262 3.51836735,14.0273929 C3.51836735,15.2940595 4.59591837,16.3261583 5.91836735,16.3261583 C7.24081633,16.3261583 8.31428571,15.2940595 8.31428571,14.0273929 Z M4.32653061,14.0273929 C4.32653061,13.1868579 5.04081633,12.5027015 5.91836735,12.5027015 C6.79591837,12.5027015 7.51020408,13.1868579 7.51020408,14.0273929 C7.51020408,14.8679278 6.79591837,15.5520842 5.91836735,15.5520842 C5.04081633,15.5520842 4.32653061,14.8640184 4.32653061,14.0273929 Z" id="Shape" fill-rule="nonzero"></path>
        </g>
    </g>
</svg>