<?xml version="1.0" encoding="UTF-8"?>
<svg width="24px" height="24px" viewBox="0 0 24 24" version="1.1" xmlns="http://www.w3.org/2000/svg" xmlns:xlink="http://www.w3.org/1999/xlink">
    <!-- Generator: Sketch 52.2 (67145) - http://www.bohemiancoding.com/sketch -->
    <title>Order to cash</title>
    <desc>Created with Sketch.</desc>
    <g id="Order-to-cash" stroke="none" stroke-width="1" fill="none" fill-rule="evenodd">
        <g id="Group-4" transform="translate(2.000000, 2.000000)" fill-rule="nonzero" stroke="#333333" stroke-width="0.8">
            <g id="Group-3">
                <g id="Group-2">
                    <path d="M15.51,18.8922474 L15.51,19.435 C15.51,19.7470409 15.2920336,20 15.0231583,20 L0.486841665,20 C0.217966438,20 3.29277186e-17,19.7470409 0,19.435 L9.56642173e-17,0.564999998 C6.27364987e-17,0.252959115 0.217966438,5.73209802e-17 0.486841665,0 L11.6234392,0 L13.5566895,1.71293403 L15.51,3.36542039 L15.51,11.6993565" id="Path" stroke-linecap="round" stroke-linejoin="round"></path>
                    <path d="M2.90372301,5.44344429 L4.77666417,5.44344429 C4.90921251,5.44344429 5.01666418,5.55089596 5.01666418,5.6834443 L5.01666418,7.55638546 C5.01666418,7.68893381 4.90921251,7.79638547 4.77666417,7.79638547 L2.90372301,7.79638547 C2.77117466,7.79638547 2.663723,7.68893381 2.663723,7.55638546 L2.663723,5.6834443 C2.663723,5.55089596 2.77117466,5.44344429 2.90372301,5.44344429 Z" id="Rectangle"></path>
                    <path d="M15.2894533,3.35433929 L11.9402299,3.56484375 C11.4405468,3.56484375 11.0354735,3.18097343 11.0354735,2.70744539 L11,0" id="Path"></path>
                </g>
                <g id="Group" transform="translate(2.250000, 4.222222)" stroke-linecap="round" stroke-linejoin="round">
                    <path d="M5.11212903,3.6374987 L10.5957754,3.6374987" id="Line-4"></path>
                    <path d="M5.11212903,1.41527647 L10.5957754,1.41527647" id="Line-4-Copy-4"></path>
                    <path d="M0.223811562,5.85648677 L10.4469222,5.85648677" id="Line-4-Copy"></path>
                    <path d="M0.223811562,8.24844244 L5.11212903,8.24844244" id="Line-4-Copy-3"></path>
                </g>
            </g>
            <g id="Group-26" transform="translate(10.000000, 11.000000)">
                <path d="M0.5,0.780139053 L9.5,0.780139053 C9.77614237,0.780139053 10,1.00399668 10,1.28013905 L10,7.28013905 C10,7.55628143 9.77614237,7.78013905 9.5,7.78013905 L0.5,7.78013905 C0.223857625,7.78013905 5.68772365e-14,7.55628143 5.68434189e-14,7.28013905 L5.68434189e-14,1.28013905 C5.68096012e-14,1.00399668 0.223857625,0.780139053 0.5,0.780139053 Z" id="Rectangle"></path>
                <path d="M-7.10542736e-14,2.95660964 L10,2.95660964" id="Line-11" stroke-linecap="square"></path>
            </g>
        </g>
    </g>
</svg>