<?xml version="1.0" encoding="UTF-8"?>
<svg width="24px" height="24px" viewBox="0 0 24 24" version="1.1" xmlns="http://www.w3.org/2000/svg" xmlns:xlink="http://www.w3.org/1999/xlink">
    <!-- Generator: Sketch 52.2 (67145) - http://www.bohemiancoding.com/sketch -->
    <title>Purchase to Payment</title>
    <desc>Created with Sketch.</desc>
    <g id="Purchase-to-Payment" stroke="none" stroke-width="1" fill="none" fill-rule="evenodd">
        <g id="Group-14" transform="translate(3.000000, 2.000000)" fill-rule="nonzero" stroke="#333333" stroke-width="0.8">
            <path d="M15.8394907,16.1164315 L15.8394907,19.2732422 C15.8394907,19.4704079 15.6796564,19.6302422 15.4824907,19.6302422 L1.32149069,19.6302422 C1.12432504,19.6302422 0.964490706,19.4704079 0.964490706,19.2732422 L0.964490706,9.98724222 C0.964490706,9.79007657 1.12432504,9.63024223 1.32149069,9.63024223 L15.4824907,9.63024223 C15.6796564,9.63024223 15.8394907,9.79007657 15.8394907,9.98724222 L15.8394907,13.2475428" id="Path"></path>
            <path d="M15.8394907,10.078709 C15.8394907,10.9864243 15.8394907,12.0109547 15.8394907,13.2168599 M15.8394907,16.2073463 C15.8394907,17.1372229 15.8394907,18.1541011 15.8394907,19.2730994 C15.8394907,19.4703439 15.6809249,19.6302422 15.485324,19.6302422 L1.31865737,19.6302422 C1.12305652,19.6302422 0.964490706,19.4703439 0.964490706,19.2730994 L0.964490706,7.84452795 C0.964490706,7.6472834 1.12305652,7.48738509 1.31865737,7.48738509 L6.27008406,7.48738509" id="Shape"></path>
            <path d="M13.4138602,13.2477177 L16.9066086,13.2477177 L16.9066086,16.1048606 L13.4138602,16.1048606 C13.2166945,16.1048606 13.0568602,15.9450262 13.0568602,15.7478606 L13.0568602,13.6047177 C13.0568602,13.4075521 13.2166945,13.2477177 13.4138602,13.2477177 Z" id="Rectangle"></path>
            <path d="M6.23500368,2.54013767 L16.2178281,2.50642863 C16.4147338,2.50576373 16.5738185,2.66406518 16.5731536,2.86000481 L16.5466679,10.6651666 C16.5460031,10.8611062 16.3858404,11.0204857 16.1889346,11.0211506 L10.2002708,11.0413725" id="Path" transform="translate(11.404080, 6.773900) rotate(-63.000000) translate(-11.404080, -6.773900) "></path>
            <path d="M7.19336039,9.63024223 L11.7170555,1.08928571" id="Path-7"></path>
            <path d="M9.11494194,9.63024223 L12.9303038,2.14285714" id="Path-7-Copy"></path>
            <path d="M14.3613928,4.34850739 L15.0666705,4.35095958 C15.2628684,4.35164174 15.4217481,4.510524 15.4224271,4.70672195 L15.4273582,6.13163044 C15.4280405,6.3287949 15.2687603,6.48918142 15.0715958,6.48986374 C15.0707703,6.4898666 15.0699447,6.48986659 15.0691191,6.48986372 L14.3638414,6.48741153 C14.1676435,6.48672937 14.0087638,6.32784711 14.0080848,6.13164916 L14.0031537,4.70674068 C14.0024714,4.50957621 14.1617516,4.34918969 14.3589161,4.34850737 C14.3597417,4.34850451 14.3605672,4.34850452 14.3613928,4.34850739 Z" id="Rectangle" transform="translate(14.715256, 5.419186) rotate(28.000000) translate(-14.715256, -5.419186) "></path>
        </g>
    </g>
</svg>