<svg id="report" xmlns="http://www.w3.org/2000/svg" width="17" height="16" viewBox="0 0 17 16">
  <path id="Path_4557" data-name="Path 4557" d="M12.725,30.737V16.787a.5.5,0,0,0-.5-.5H.5a.5.5,0,0,0-.5.5V29.736a2.5,2.5,0,0,0,2.492,2.5H13.225A2.5,2.5,0,0,1,12.725,30.737ZM2.658,25.9H4.253a.5.5,0,0,1,0,1H2.658a.5.5,0,0,1,0-1Zm-.5-1.635a.5.5,0,0,1,.5-.5H4.253a.5.5,0,0,1,0,1H2.658A.5.5,0,0,1,2.16,24.262ZM10.1,29.836H2.658a.5.5,0,0,1,0-1H10.1a.5.5,0,0,1,0,1Zm.5-2.637a.5.5,0,0,1-.5.5H6.379a.5.5,0,0,1-.5-.5V23.461a.5.5,0,0,1,.5-.5H10.1a.5.5,0,0,1,.5.5Zm-.5-5.373H2.658a.5.5,0,0,1,0-1H10.1a.5.5,0,0,1,0,1Zm0-2.136H2.658a.5.5,0,0,1,0-1H10.1a.5.5,0,0,1,0,1Z" transform="translate(0 -16.286)" fill="#fff"/>
  <path id="Path_4558" data-name="Path 4558" d="M207,246.286h2.717V249H207Z" transform="translate(-200.124 -238.599)" fill="#fff"/>
  <path id="Path_4559" data-name="Path 4559" d="M415.774,120.286h-2.783c0,11.26,0,10.9,0,10.9a1.64,1.64,0,0,0,3.275-.037s0,.248,0-10.366A.5.5,0,0,0,415.774,120.286Z" transform="translate(-399.271 -116.724)" fill="#fff"/>
</svg>
